<svg width="514" height="280" viewBox="0 0 514 280" fill="none" xmlns="http://www.w3.org/2000/svg">
<path d="M0 279H513" stroke="#667085" stroke-width="2"/>
<path d="M145.486 257.751L130.157 153H383.843L368.514 257.751C367.148 267.083 359.145 274 349.714 274H164.286C154.855 274 146.852 267.083 145.486 257.751Z" stroke="#667085" stroke-width="2"/>
<rect x="113" y="120" width="288" height="33" rx="10" stroke="#667085" stroke-width="2"/>
<path d="M122.5 240C125.538 240 128 237.538 128 234.5C128 231.462 125.538 229 122.5 229C119.462 229 117 231.462 117 234.5C117 237.538 119.462 240 122.5 240Z" stroke="#667085" stroke-width="5"/>
<path d="M104 265C108.418 265 112 261.418 112 257C112 252.582 108.418 249 104 249C99.5817 249 96 252.582 96 257C96 261.418 99.5817 265 104 265Z" stroke="#667085" stroke-width="4"/>
<g filter="url(#filter0_f_41_4)">
<path d="M396 160C415.33 160 431 144.33 431 125C431 105.67 415.33 90 396 90C376.67 90 361 105.67 361 125C361 144.33 376.67 160 396 160Z" fill="#667085" fill-opacity="0.75"/>
</g>
<rect x="264" y="188" width="52" height="15" rx="7.5" transform="rotate(90 264 188)" fill="#667085"/>
<rect x="231" y="206" width="52" height="15" rx="7.5" fill="#667085"/>
<rect x="406.958" y="103.64" width="14" height="45" transform="rotate(45 406.958 103.64)" fill="#667085"/>
<rect x="375.14" y="113.54" width="14" height="45" transform="rotate(-45 375.14 113.54)" fill="#667085"/>
<g filter="url(#filter1_f_41_4)">
<rect x="440.015" y="76" width="4.41454" height="21.2347" transform="rotate(45 440.015 76)" fill="#667085"/>
</g>
<g filter="url(#filter2_f_41_4)">
<rect x="412.999" y="62.3973" width="4.41454" height="21.2347" transform="rotate(22 412.999 62.3973)" fill="#667085"/>
</g>
<g filter="url(#filter3_f_41_4)">
<rect x="457.835" y="101.358" width="4.41454" height="21.2347" transform="rotate(76 457.835 101.358)" fill="#667085"/>
</g>
<rect x="171.604" y="80" width="5.86654" height="6" fill="#667085"/>
<rect x="152.68" y="52" width="5.86654" height="6" fill="#667085"/>
<rect x="152.68" y="52" width="5.86654" height="6" fill="#667085"/>
<rect x="149" y="60" width="5.86654" height="6" fill="#667085"/>
<rect width="6.3594" height="5.61899" transform="matrix(0.766044 -0.642788 0.501225 0.865317 306.813 34.6127)" fill="#667085"/>
<rect width="6.06868" height="5.85042" transform="matrix(0.883116 -0.469155 0.349592 0.936902 311.822 39.683)" fill="#667085"/>
<rect width="5.91162" height="5.9674" transform="matrix(0.974142 -0.225939 0.160786 0.986989 316.193 45.723)" fill="#667085"/>
<rect x="319.295" y="53" width="5.86654" height="6" fill="#667085"/>
<rect x="321.133" y="62" width="5.86654" height="6" fill="#667085"/>
<rect x="321.133" y="71" width="5.86654" height="6" fill="#667085"/>
<rect x="321.133" y="80" width="5.86654" height="6" fill="#667085"/>
<rect x="319.458" y="89" width="5.86654" height="6" fill="#667085"/>
<rect x="315.267" y="97" width="5.86654" height="6" fill="#667085"/>
<rect x="306.886" y="99" width="5.86654" height="6" fill="#667085"/>
<rect x="298.505" y="99" width="5.86654" height="6" fill="#667085"/>
<rect x="292.639" y="91" width="5.86654" height="6" fill="#667085"/>
<rect x="284.258" y="86" width="5.86654" height="6" fill="#667085"/>
<rect x="275.877" y="86" width="5.86654" height="6" fill="#667085"/>
<rect x="267.497" y="86" width="5.86654" height="6" fill="#667085"/>
<rect x="259.116" y="90" width="5.86654" height="6" fill="#667085"/>
<rect x="255.764" y="99" width="5.86654" height="6" fill="#667085"/>
<rect x="255.764" y="108" width="5.86654" height="6" fill="#667085"/>
<rect x="162.737" y="109" width="5.86654" height="6" fill="#667085"/>
<rect x="207.754" y="37" width="5.86654" height="6" fill="#667085"/>
<rect x="203.536" y="44" width="5.86654" height="6" fill="#667085"/>
<rect x="194.641" y="46" width="5.86654" height="6" fill="#667085"/>
<rect x="185.746" y="47" width="5.86654" height="6" fill="#667085"/>
<rect x="176.851" y="47" width="5.86654" height="6" fill="#667085"/>
<rect x="168.956" y="47" width="5.86654" height="6" fill="#667085"/>
<rect x="160.061" y="47" width="5.86654" height="6" fill="#667085"/>
<rect x="150.166" y="68" width="5.86654" height="6" fill="#667085"/>
<rect x="156.004" y="75" width="5.86654" height="6" fill="#667085"/>
<rect x="163.708" y="79" width="5.86654" height="6" fill="#667085"/>
<rect x="178.499" y="82" width="5.86654" height="6" fill="#667085"/>
<rect x="188.203" y="95" width="5.86654" height="6" fill="#667085"/>
<rect x="183.689" y="102" width="5.86654" height="6" fill="#667085"/>
<rect x="170.794" y="109" width="5.86654" height="6" fill="#667085"/>
<rect x="179" y="109" width="5.86654" height="6" fill="#667085"/>
<rect x="186" y="87" width="5.86654" height="6" fill="#667085"/>
<path d="M306.541 29.9605L299.752 35.6573C293.846 40.6126 285.33 40.4116 279.676 35.5331L286.465 29.8363C292.371 24.881 300.887 25.082 306.541 29.9605Z" fill="#D9D9D9" stroke="#667085" stroke-width="5"/>
<path d="M310.881 9.34791L317.67 3.65108C321.493 10.0663 320.212 18.488 314.307 23.4433L307.517 29.1401C303.695 22.7249 304.976 14.3032 310.881 9.34791Z" fill="#D9D9D9" stroke="#667085" stroke-width="5"/>
<path d="M209.862 33.4998H201C193.29 33.4998 186.896 27.8717 185.701 20.5003H194.563C202.272 20.5003 208.666 26.1284 209.862 33.4998Z" fill="#D9D9D9" stroke="#667085" stroke-width="5"/>
<path d="M226.437 20.4998H235.3C234.104 27.8712 227.71 33.4993 220.001 33.4993H211.139C212.334 26.1278 218.728 20.4998 226.437 20.4998Z" fill="#D9D9D9" stroke="#667085" stroke-width="5"/>
<defs>
<filter id="filter0_f_41_4" x="357" y="86" width="78" height="78" filterUnits="userSpaceOnUse" color-interpolation-filters="sRGB">
<feFlood flood-opacity="0" result="BackgroundImageFix"/>
<feBlend mode="normal" in="SourceGraphic" in2="BackgroundImageFix" result="shape"/>
<feGaussianBlur stdDeviation="2" result="effect1_foregroundBlur_41_4"/>
</filter>
<filter id="filter1_f_41_4" x="421" y="72" width="26.1367" height="26.1367" filterUnits="userSpaceOnUse" color-interpolation-filters="sRGB">
<feFlood flood-opacity="0" result="BackgroundImageFix"/>
<feBlend mode="normal" in="SourceGraphic" in2="BackgroundImageFix" result="shape"/>
<feGaussianBlur stdDeviation="2" result="effect1_foregroundBlur_41_4"/>
</filter>
<filter id="filter2_f_41_4" x="401.044" y="58.3973" width="20.0479" height="29.3422" filterUnits="userSpaceOnUse" color-interpolation-filters="sRGB">
<feFlood flood-opacity="0" result="BackgroundImageFix"/>
<feBlend mode="normal" in="SourceGraphic" in2="BackgroundImageFix" result="shape"/>
<feGaussianBlur stdDeviation="2" result="effect1_foregroundBlur_41_4"/>
</filter>
<filter id="filter3_f_41_4" x="433.231" y="97.3581" width="29.6719" height="17.4206" filterUnits="userSpaceOnUse" color-interpolation-filters="sRGB">
<feFlood flood-opacity="0" result="BackgroundImageFix"/>
<feBlend mode="normal" in="SourceGraphic" in2="BackgroundImageFix" result="shape"/>
<feGaussianBlur stdDeviation="2" result="effect1_foregroundBlur_41_4"/>
</filter>
</defs>
</svg>
