<svg width="514" height="164" viewBox="0 0 514 164" fill="none" xmlns="http://www.w3.org/2000/svg">
<g clip-path="url(#clip0_31_2)">
<path d="M270 41C279.941 41 288 32.9411 288 23C288 13.0589 279.941 5 270 5C260.059 5 252 13.0589 252 23C252 32.9411 260.059 41 270 41Z" stroke="#667085" stroke-width="2"/>
<path d="M196 160C205.941 160 214 151.941 214 142C214 132.059 205.941 124 196 124C186.059 124 178 132.059 178 142C178 151.941 186.059 160 196 160Z" stroke="#667085" stroke-width="2"/>
<path d="M344 160C353.941 160 362 151.941 362 142C362 132.059 353.941 124 344 124C334.059 124 326 132.059 326 142C326 151.941 334.059 160 344 160Z" stroke="#667085" stroke-width="2"/>
<path d="M186.077 157.174C176.71 151.321 174.382 138.149 180.877 127.754L251.445 14.8219C257.94 4.42686 270.8 0.745056 280.167 6.59838C289.535 12.4519 291.862 25.6236 285.367 36.0187L214.799 148.95C208.303 159.346 195.445 163.027 186.077 157.174Z" stroke="#667085" stroke-width="2"/>
<path d="M354.051 157.174C344.684 163.027 331.824 159.346 325.329 148.95L254.761 36.0187C248.266 25.6236 250.594 12.4517 259.961 6.59839C269.328 0.744906 282.188 4.42687 288.683 14.8219L359.251 127.754C365.746 138.149 363.418 151.32 354.051 157.174Z" stroke="#667085" stroke-width="2"/>
<path d="M0 1L513 1.00004" stroke="#667085" stroke-width="2"/>
<path d="M0 163H513" stroke="#667085" stroke-width="2"/>
<path d="M270 116C272.209 116 274 114.209 274 112C274 109.791 272.209 108 270 108C267.791 108 266 109.791 266 112C266 114.209 267.791 116 270 116Z" stroke="#A13434" stroke-width="2"/>
<path d="M177 141.5C177 131.283 187.409 123 200.25 123H339.75C352.591 123 363 131.283 363 141.5C363 151.718 352.591 160 339.75 160H200.25C187.409 160 177 151.718 177 141.5Z" stroke="#667085" stroke-width="2"/>
<path d="M269.997 104.53C268.037 104.526 266.446 102.935 266.442 100.975L266.405 81.0113C266.401 79.0516 267.986 77.466 269.946 77.4697C271.906 77.4734 273.497 79.065 273.501 81.0246L273.539 100.989C273.542 102.948 271.957 104.534 269.997 104.53Z" stroke="#A13434" stroke-width="2"/>
</g>
<defs>
<clipPath id="clip0_31_2">
<rect width="514" height="164" fill="white"/>
</clipPath>
</defs>
</svg>
