<svg width="203" height="164" viewBox="0 0 203 164" fill="none" xmlns="http://www.w3.org/2000/svg">
<path d="M101 41C110.941 41 119 32.9411 119 23C119 13.0589 110.941 5 101 5C91.0589 5 83 13.0589 83 23C83 32.9411 91.0589 41 101 41Z" stroke="#667085" stroke-width="2"/>
<path d="M27 160C36.9411 160 45 151.941 45 142C45 132.059 36.9411 124 27 124C17.0589 124 9 132.059 9 142C9 151.941 17.0589 160 27 160Z" stroke="#667085" stroke-width="2"/>
<path d="M175 160C184.941 160 193 151.941 193 142C193 132.059 184.941 124 175 124C165.059 124 157 132.059 157 142C157 151.941 165.059 160 175 160Z" stroke="#667085" stroke-width="2"/>
<path d="M17.077 157.174C7.70974 151.321 5.38158 138.149 11.8773 127.754L82.4448 14.8219C88.9404 4.42686 101.8 0.745056 111.167 6.59838C120.535 12.4519 122.862 25.6236 116.367 36.0187L45.7992 148.95C39.3035 159.346 26.4446 163.027 17.077 157.174Z" stroke="#667085" stroke-width="2"/>
<path d="M185.051 157.174C175.684 163.027 162.824 159.346 156.329 148.95L85.7612 36.0187C79.2657 25.6236 81.5937 12.4517 90.961 6.59839C100.328 0.744906 113.188 4.42687 119.683 14.8219L190.251 127.754C196.746 138.149 194.418 151.32 185.051 157.174Z" stroke="#667085" stroke-width="2"/>
<path d="M101 116C103.209 116 105 114.209 105 112C105 109.791 103.209 108 101 108C98.7909 108 97 109.791 97 112C97 114.209 98.7909 116 101 116Z" stroke="#A13434" stroke-width="2"/>
<path d="M8 141.5C8 131.283 18.4094 123 31.25 123H170.75C183.591 123 194 131.283 194 141.5C194 151.718 183.591 160 170.75 160H31.25C18.4094 160 8 151.718 8 141.5Z" stroke="#667085" stroke-width="2"/>
<path d="M100.997 104.53C99.0375 104.526 97.4459 102.935 97.4422 100.975L97.4046 81.0113C97.4009 79.0516 98.9865 77.466 100.946 77.4697C102.906 77.4734 104.497 79.065 104.501 81.0246L104.539 100.989C104.542 102.948 102.957 104.534 100.997 104.53Z" stroke="#A13434" stroke-width="2"/>
</svg>
