<svg width="508" height="500" viewBox="0 0 508 500" fill="none" xmlns="http://www.w3.org/2000/svg">
<rect width="508" height="500" rx="69" fill="#D8D8D8"/>
<path d="M198.725 1C211.815 1 222.425 11.6109 222.425 24.7V63.2008L160.225 63.2008V24.7C160.225 11.6109 170.836 1 183.925 1L198.725 1Z" fill="#3DBDEC"/>
<rect x="160.225" y="63.2005" width="62.2005" height="62.2008" fill="#1F2B5B"/>
<path d="M178.098 295.188C170.924 301.107 160.098 296.004 160.098 286.703V125.011H221.774V204.5L191.592 243.77L181.391 264.838L178.5 288.386L186.343 310.038L191.592 335.159L181.391 307.5L186.343 288.386L178.098 295.188Z" fill="#3DBDEC"/>
<path d="M183.309 97.5792C180.163 80.6957 191.327 64.2221 208.486 63.515C230.95 62.5893 253.485 65.1506 275.279 71.1644C307.097 79.9443 336.498 95.8526 361.254 117.683C386.011 139.514 405.472 166.695 418.163 197.164C430.854 227.634 436.442 260.593 434.504 293.543C432.565 326.493 423.15 358.569 406.973 387.34C390.796 416.111 368.281 440.821 341.135 459.598C313.989 478.375 282.925 490.725 250.297 495.713C227.949 499.129 205.268 499.03 183.068 495.476C166.11 492.762 156.956 475.092 162.06 458.694V458.694C167.164 442.296 184.631 433.48 201.717 435.219C214.726 436.544 227.891 436.223 240.899 434.235C264.195 430.674 286.374 421.856 305.756 408.45C325.137 395.043 341.212 377.401 352.762 356.859C364.312 336.317 371.034 313.415 372.419 289.89C373.803 266.364 369.813 242.832 360.752 221.077C351.691 199.323 337.796 179.917 320.12 164.33C302.445 148.743 281.453 137.385 258.735 131.116C246.05 127.616 233.014 125.754 219.939 125.543C202.768 125.267 186.454 114.463 183.309 97.5792V97.5792Z" fill="#1F2B5B"/>
<rect x="185.028" y="73.8307" width="13.1225" height="41.9923" rx="5" fill="#3DBDEC"/>
<rect x="170.591" y="101.387" width="13.1225" height="41.9919" rx="5" transform="rotate(-90 170.591 101.387)" fill="#3DBDEC"/>
<circle cx="254.051" cy="280.641" r="86.7259" stroke="#1F2B5B" stroke-width="14.2"/>
<path d="M328 280.5C328 321.058 294.905 354 254 354C213.095 354 180 321.058 180 280.5C180 239.942 213.095 207 254 207C294.905 207 328 239.942 328 280.5Z" stroke="#3DBDEC" stroke-width="12"/>
<path d="M98.0244 88.2005C98.0244 74.3934 109.217 63.2005 123.024 63.2005H160.225V125.401H123.024C109.217 125.401 98.0244 114.208 98.0244 100.401V88.2005Z" fill="#3DBDEC"/>
</svg>
