<svg width="24" height="24" viewBox="0 0 24 24" fill="none" xmlns="http://www.w3.org/2000/svg">
<path d="M21.3 12C21.3 17.1362 17.1362 21.3 12 21.3C6.86375 21.3 2.7 17.1362 2.7 12C2.7 6.86375 6.86375 2.7 12 2.7C17.1362 2.7 21.3 6.86375 21.3 12Z" fill="#4B5563" stroke="#D1D5DB" stroke-width="1.4" stroke-linejoin="round"/>
<rect x="12.7" y="11.2999" width="6" height="1.4" rx="0.7" transform="rotate(90 12.7 11.2999)" fill="#D1D5DB"/>
<rect x="15" y="14.9999" width="6" height="1.4" rx="0.7" transform="rotate(180 15 14.9999)" fill="#D1D5DB"/>
<path d="M17.5 9.99988V18.9999" stroke="#D1D5DB" stroke-width="1.4" stroke-linecap="round"/>
<path d="M6.5 9.99988L6.5 18.9999" stroke="#D1D5DB" stroke-width="1.4" stroke-linecap="round"/>
<rect x="11.8984" y="4.62048" width="10.2722" height="1.4" rx="0.7" transform="rotate(38 11.8984 4.62048)" fill="#D1D5DB"/>
<rect x="4" y="10.9252" width="10.2443" height="1.4" rx="0.7" transform="rotate(-38 4 10.9252)" fill="#D1D5DB"/>
</svg>
