<svg width="266" height="389" viewBox="0 0 266 389" fill="none" xmlns="http://www.w3.org/2000/svg">
<rect x="51.1" y="52.4" width="47.4" height="47.4" fill="#1F2B5B"/>
<path d="M69.0002 225.65C61.8258 231.569 51 226.465 51 217.165L51 99.5H98V176.179L75 190L73.5 242L75 259.643L71 224L69.0002 225.65Z" fill="#3DBDEC"/>
<path d="M68.6906 78.5992C66.2935 65.7332 74.8007 53.1794 87.877 52.6405C104.995 51.9351 122.169 53.887 138.776 58.4698C163.023 65.1605 185.429 77.2834 204.294 93.9197C223.16 110.556 237.99 131.269 247.662 154.488C257.333 177.707 261.591 202.824 260.114 227.933C258.636 253.043 251.462 277.487 239.134 299.412C226.806 321.336 209.649 340.167 188.962 354.476C168.276 368.785 144.603 378.196 119.739 381.997C102.709 384.601 85.425 384.525 68.5074 381.817C55.5845 379.748 48.6084 366.283 52.4978 353.787V353.787C56.3873 341.291 69.6986 334.573 82.7187 335.898C92.632 336.907 102.665 336.663 112.577 335.148C130.33 332.434 147.232 325.714 162.001 315.498C176.771 305.282 189.021 291.837 197.823 276.183C206.625 260.529 211.747 243.077 212.802 225.149C213.857 207.222 210.817 189.289 203.911 172.711C197.006 156.133 186.418 141.344 172.948 129.466C159.478 117.589 143.481 108.933 126.17 104.156C116.503 101.489 106.568 100.07 96.6049 99.9091C83.5192 99.6984 71.0877 91.4652 68.6906 78.5992V78.5992Z" fill="#1F2B5B"/>
<rect x="70" y="60.5" width="10" height="32" rx="5" fill="#3DBDEC"/>
<rect x="59" y="81.5" width="10" height="32" rx="5" transform="rotate(-90 59 81.5)" fill="#3DBDEC"/>
<circle cx="122.6" cy="218.1" r="64.4" stroke="#1F2B5B" stroke-width="14.2"/>
<circle cx="122.5" cy="218" r="51.5" stroke="#3DBDEC" stroke-width="12"/>
<path d="M3.70001 76.1C3.70001 63.0108 14.3109 52.4 27.4 52.4H51.1V99.8H27.4C14.3109 99.8 3.70001 89.1891 3.70001 76.1V76.1Z" fill="#3DBDEC"/>
<path d="M74.8 5C87.8891 5 98.5 15.6109 98.5 28.7L98.5 52.4L51.1 52.4V28.7C51.1 15.6108 61.7109 5 74.8 5V5Z" fill="#3DBDEC"/>
</svg>
