<svg width="172" height="225" viewBox="0 0 172 225" fill="none" xmlns="http://www.w3.org/2000/svg">
<rect x="4" y="97" width="164" height="124" rx="19" stroke="#667085" stroke-width="8"/>
<path d="M148 62C148 45.5566 141.468 29.7866 129.841 18.1594C118.213 6.53213 102.443 1.24144e-06 86 0C69.5566 -1.24144e-06 53.7866 6.53212 42.1594 18.1594C30.5321 29.7866 24 45.5566 24 62L38.012 62C38.012 49.2728 43.0679 37.0669 52.0674 28.0674C61.0669 19.0679 73.2728 14.012 86 14.012C98.7272 14.012 110.933 19.0679 119.933 28.0674C128.932 37.0669 133.988 49.2728 133.988 62H148Z" fill="#667085"/>
<rect x="24" y="59" width="14" height="36" fill="#667085"/>
<rect x="134" y="59" width="14" height="37" fill="#667085"/>
<path d="M102 141.999L108.835 158.5L102 175L85.5 181.835L68.999 175L62.1641 158.5L68.999 141.999L85.5 135.164L102 141.999Z" stroke="#667085" stroke-width="4"/>
<line x1="11.1951" y1="101.54" x2="103.195" y2="140.54" stroke="#667085"/>
<line x1="84.4619" y1="95.8086" x2="110.554" y2="158.77" stroke="#667085"/>
<line x1="142.456" y1="84.1951" x2="103.46" y2="176.197" stroke="#667085"/>
<line x1="68.1871" y1="176.536" x2="160.855" y2="213.92" stroke="#667085"/>
<line x1="169.187" y1="149.464" x2="86.1872" y2="182.945" stroke="#667085"/>
<line x1="86.5378" y1="222.191" x2="60.538" y2="159.191" stroke="#667085"/>
<line x1="34.535" y1="222.816" x2="66.9676" y2="140.816" stroke="#667085"/>
<line x1="3.81755" y1="165.534" x2="85.4664" y2="133.534" stroke="#667085"/>
</svg>
